<svg xmlns="http://www.w3.org/2000/svg" viewBox="0 0 1200 680" role="img" aria-labelledby="t d">
<title id="t">定制化AI项目数据规律挖掘封面</title><desc id="d">以数据节点、论文表格和智能分析流程构成的抽象科研AI图形</desc>
<defs><linearGradient id="bg" x1="0" x2="1" y1="0" y2="1"><stop stop-color="#061a36"/><stop offset="1" stop-color="#075ca8"/></linearGradient><radialGradient id="glow"><stop stop-color="#40c8ff" stop-opacity=".95"/><stop offset="1" stop-color="#40c8ff" stop-opacity="0"/></radialGradient></defs>
<rect width="1200" height="680" rx="28" fill="url(#bg)"/>
<g opacity=".18" stroke="#8edcff"><path d="M80 120h1040M80 220h1040M80 320h1040M80 420h1040M80 520h1040"/><path d="M180 70v540M360 70v540M540 70v540M720 70v540M900 70v540M1080 70v540"/></g>
<circle cx="600" cy="340" r="240" fill="url(#glow)" opacity=".35"/>
<g fill="none" stroke="#4bd2ff" stroke-width="5"><path d="M210 430C340 210 490 520 620 280S900 160 1010 390"/><path d="M210 500C350 390 440 430 560 390S780 500 1010 250" opacity=".65"/></g>
<g fill="#fff"><circle cx="210" cy="430" r="12"/><circle cx="390" cy="310" r="12"/><circle cx="520" cy="430" r="12"/><circle cx="620" cy="280" r="12"/><circle cx="810" cy="210" r="12"/><circle cx="1010" cy="390" r="12"/></g>
<g transform="translate(470 205)"><rect width="260" height="260" rx="34" fill="#092d58" stroke="#77ddff" stroke-width="4"/><path d="M60 70h140M60 112h92M60 154h140M60 196h112" stroke="#8fe4ff" stroke-width="13" stroke-linecap="round"/><circle cx="196" cy="112" r="20" fill="#36c4ff"/></g>
</svg>